<mxfile host="app.diagrams.net" modified="2021-05-29T21:36:06.883Z" agent="5.0 (Windows)" etag="NM8pjvVdbWu1UJq45jxd" version="14.7.3" type="github">
  <diagram id="kGdyLAafUO8NzPdWQ0qu" name="Page-1">
    <mxGraphModel dx="1108" dy="479" grid="1" gridSize="10" guides="1" tooltips="1" connect="1" arrows="1" fold="1" page="1" pageScale="1" pageWidth="850" pageHeight="1100" math="0" shadow="0">
      <root>
        <mxCell id="0" />
        <mxCell id="1" parent="0" />
        <mxCell id="g7x5d8bnA5PVQpnUAOL4-1" value="Tutors" style="shape=table;startSize=30;container=1;collapsible=1;childLayout=tableLayout;fixedRows=1;rowLines=0;fontStyle=1;align=center;resizeLast=1;" vertex="1" parent="1">
          <mxGeometry x="80" y="80" width="180" height="190" as="geometry" />
        </mxCell>
        <mxCell id="g7x5d8bnA5PVQpnUAOL4-2" value="" style="shape=partialRectangle;collapsible=0;dropTarget=0;pointerEvents=0;fillColor=none;top=0;left=0;bottom=1;right=0;points=[[0,0.5],[1,0.5]];portConstraint=eastwest;" vertex="1" parent="g7x5d8bnA5PVQpnUAOL4-1">
          <mxGeometry y="30" width="180" height="30" as="geometry" />
        </mxCell>
        <mxCell id="g7x5d8bnA5PVQpnUAOL4-3" value="PK" style="shape=partialRectangle;connectable=0;fillColor=none;top=0;left=0;bottom=0;right=0;fontStyle=1;overflow=hidden;" vertex="1" parent="g7x5d8bnA5PVQpnUAOL4-2">
          <mxGeometry width="30" height="30" as="geometry" />
        </mxCell>
        <mxCell id="g7x5d8bnA5PVQpnUAOL4-4" value="tutor_id int " style="shape=partialRectangle;connectable=0;fillColor=none;top=0;left=0;bottom=0;right=0;align=left;spacingLeft=6;fontStyle=5;overflow=hidden;" vertex="1" parent="g7x5d8bnA5PVQpnUAOL4-2">
          <mxGeometry x="30" width="150" height="30" as="geometry" />
        </mxCell>
        <mxCell id="g7x5d8bnA5PVQpnUAOL4-5" value="" style="shape=partialRectangle;collapsible=0;dropTarget=0;pointerEvents=0;fillColor=none;top=0;left=0;bottom=0;right=0;points=[[0,0.5],[1,0.5]];portConstraint=eastwest;" vertex="1" parent="g7x5d8bnA5PVQpnUAOL4-1">
          <mxGeometry y="60" width="180" height="30" as="geometry" />
        </mxCell>
        <mxCell id="g7x5d8bnA5PVQpnUAOL4-6" value="" style="shape=partialRectangle;connectable=0;fillColor=none;top=0;left=0;bottom=0;right=0;editable=1;overflow=hidden;" vertex="1" parent="g7x5d8bnA5PVQpnUAOL4-5">
          <mxGeometry width="30" height="30" as="geometry" />
        </mxCell>
        <mxCell id="g7x5d8bnA5PVQpnUAOL4-7" value="firstName varchar(50)" style="shape=partialRectangle;connectable=0;fillColor=none;top=0;left=0;bottom=0;right=0;align=left;spacingLeft=6;overflow=hidden;fontStyle=1" vertex="1" parent="g7x5d8bnA5PVQpnUAOL4-5">
          <mxGeometry x="30" width="150" height="30" as="geometry" />
        </mxCell>
        <mxCell id="g7x5d8bnA5PVQpnUAOL4-8" value="" style="shape=partialRectangle;collapsible=0;dropTarget=0;pointerEvents=0;fillColor=none;top=0;left=0;bottom=0;right=0;points=[[0,0.5],[1,0.5]];portConstraint=eastwest;" vertex="1" parent="g7x5d8bnA5PVQpnUAOL4-1">
          <mxGeometry y="90" width="180" height="30" as="geometry" />
        </mxCell>
        <mxCell id="g7x5d8bnA5PVQpnUAOL4-9" value="" style="shape=partialRectangle;connectable=0;fillColor=none;top=0;left=0;bottom=0;right=0;editable=1;overflow=hidden;" vertex="1" parent="g7x5d8bnA5PVQpnUAOL4-8">
          <mxGeometry width="30" height="30" as="geometry" />
        </mxCell>
        <mxCell id="g7x5d8bnA5PVQpnUAOL4-10" value="lastName varchar(50)" style="shape=partialRectangle;connectable=0;fillColor=none;top=0;left=0;bottom=0;right=0;align=left;spacingLeft=6;overflow=hidden;fontStyle=1" vertex="1" parent="g7x5d8bnA5PVQpnUAOL4-8">
          <mxGeometry x="30" width="150" height="30" as="geometry" />
        </mxCell>
        <mxCell id="g7x5d8bnA5PVQpnUAOL4-11" value="" style="shape=partialRectangle;collapsible=0;dropTarget=0;pointerEvents=0;fillColor=none;top=0;left=0;bottom=0;right=0;points=[[0,0.5],[1,0.5]];portConstraint=eastwest;" vertex="1" parent="g7x5d8bnA5PVQpnUAOL4-1">
          <mxGeometry y="120" width="180" height="30" as="geometry" />
        </mxCell>
        <mxCell id="g7x5d8bnA5PVQpnUAOL4-12" value="" style="shape=partialRectangle;connectable=0;fillColor=none;top=0;left=0;bottom=0;right=0;editable=1;overflow=hidden;" vertex="1" parent="g7x5d8bnA5PVQpnUAOL4-11">
          <mxGeometry width="30" height="30" as="geometry" />
        </mxCell>
        <mxCell id="g7x5d8bnA5PVQpnUAOL4-13" value="gender varchar(10)" style="shape=partialRectangle;connectable=0;fillColor=none;top=0;left=0;bottom=0;right=0;align=left;spacingLeft=6;overflow=hidden;fontStyle=1" vertex="1" parent="g7x5d8bnA5PVQpnUAOL4-11">
          <mxGeometry x="30" width="150" height="30" as="geometry" />
        </mxCell>
        <mxCell id="g7x5d8bnA5PVQpnUAOL4-79" value="" style="shape=partialRectangle;collapsible=0;dropTarget=0;pointerEvents=0;fillColor=none;top=0;left=0;bottom=0;right=0;points=[[0,0.5],[1,0.5]];portConstraint=eastwest;" vertex="1" parent="g7x5d8bnA5PVQpnUAOL4-1">
          <mxGeometry y="150" width="180" height="30" as="geometry" />
        </mxCell>
        <mxCell id="g7x5d8bnA5PVQpnUAOL4-80" value="" style="shape=partialRectangle;connectable=0;fillColor=none;top=0;left=0;bottom=0;right=0;editable=1;overflow=hidden;" vertex="1" parent="g7x5d8bnA5PVQpnUAOL4-79">
          <mxGeometry width="30" height="30" as="geometry" />
        </mxCell>
        <mxCell id="g7x5d8bnA5PVQpnUAOL4-81" value="phone varchar(20)" style="shape=partialRectangle;connectable=0;fillColor=none;top=0;left=0;bottom=0;right=0;align=left;spacingLeft=6;overflow=hidden;fontStyle=1" vertex="1" parent="g7x5d8bnA5PVQpnUAOL4-79">
          <mxGeometry x="30" width="150" height="30" as="geometry" />
        </mxCell>
        <mxCell id="g7x5d8bnA5PVQpnUAOL4-14" value="Manager" style="shape=table;startSize=30;container=1;collapsible=1;childLayout=tableLayout;fixedRows=1;rowLines=0;fontStyle=1;align=center;resizeLast=1;" vertex="1" parent="1">
          <mxGeometry x="70" y="320" width="180" height="130" as="geometry" />
        </mxCell>
        <mxCell id="g7x5d8bnA5PVQpnUAOL4-15" value="" style="shape=partialRectangle;collapsible=0;dropTarget=0;pointerEvents=0;fillColor=none;top=0;left=0;bottom=1;right=0;points=[[0,0.5],[1,0.5]];portConstraint=eastwest;" vertex="1" parent="g7x5d8bnA5PVQpnUAOL4-14">
          <mxGeometry y="30" width="180" height="30" as="geometry" />
        </mxCell>
        <mxCell id="g7x5d8bnA5PVQpnUAOL4-16" value="PK" style="shape=partialRectangle;connectable=0;fillColor=none;top=0;left=0;bottom=0;right=0;fontStyle=1;overflow=hidden;" vertex="1" parent="g7x5d8bnA5PVQpnUAOL4-15">
          <mxGeometry width="30" height="30" as="geometry" />
        </mxCell>
        <mxCell id="g7x5d8bnA5PVQpnUAOL4-17" value="manager_id int" style="shape=partialRectangle;connectable=0;fillColor=none;top=0;left=0;bottom=0;right=0;align=left;spacingLeft=6;fontStyle=5;overflow=hidden;" vertex="1" parent="g7x5d8bnA5PVQpnUAOL4-15">
          <mxGeometry x="30" width="150" height="30" as="geometry" />
        </mxCell>
        <mxCell id="g7x5d8bnA5PVQpnUAOL4-18" value="" style="shape=partialRectangle;collapsible=0;dropTarget=0;pointerEvents=0;fillColor=none;top=0;left=0;bottom=0;right=0;points=[[0,0.5],[1,0.5]];portConstraint=eastwest;" vertex="1" parent="g7x5d8bnA5PVQpnUAOL4-14">
          <mxGeometry y="60" width="180" height="30" as="geometry" />
        </mxCell>
        <mxCell id="g7x5d8bnA5PVQpnUAOL4-19" value="" style="shape=partialRectangle;connectable=0;fillColor=none;top=0;left=0;bottom=0;right=0;editable=1;overflow=hidden;" vertex="1" parent="g7x5d8bnA5PVQpnUAOL4-18">
          <mxGeometry width="30" height="30" as="geometry" />
        </mxCell>
        <mxCell id="g7x5d8bnA5PVQpnUAOL4-20" value="name varchar(60)" style="shape=partialRectangle;connectable=0;fillColor=none;top=0;left=0;bottom=0;right=0;align=left;spacingLeft=6;overflow=hidden;fontStyle=1" vertex="1" parent="g7x5d8bnA5PVQpnUAOL4-18">
          <mxGeometry x="30" width="150" height="30" as="geometry" />
        </mxCell>
        <mxCell id="g7x5d8bnA5PVQpnUAOL4-121" value="" style="shape=partialRectangle;collapsible=0;dropTarget=0;pointerEvents=0;fillColor=none;top=0;left=0;bottom=0;right=0;points=[[0,0.5],[1,0.5]];portConstraint=eastwest;" vertex="1" parent="g7x5d8bnA5PVQpnUAOL4-14">
          <mxGeometry y="90" width="180" height="30" as="geometry" />
        </mxCell>
        <mxCell id="g7x5d8bnA5PVQpnUAOL4-122" value="FK" style="shape=partialRectangle;connectable=0;fillColor=none;top=0;left=0;bottom=0;right=0;editable=1;overflow=hidden;fontStyle=1" vertex="1" parent="g7x5d8bnA5PVQpnUAOL4-121">
          <mxGeometry width="30" height="30" as="geometry" />
        </mxCell>
        <mxCell id="g7x5d8bnA5PVQpnUAOL4-123" value="tutor_id int" style="shape=partialRectangle;connectable=0;fillColor=none;top=0;left=0;bottom=0;right=0;align=left;spacingLeft=6;overflow=hidden;fontStyle=1" vertex="1" parent="g7x5d8bnA5PVQpnUAOL4-121">
          <mxGeometry x="30" width="150" height="30" as="geometry" />
        </mxCell>
        <mxCell id="g7x5d8bnA5PVQpnUAOL4-27" value="Courses" style="shape=table;startSize=30;container=1;collapsible=1;childLayout=tableLayout;fixedRows=1;rowLines=0;fontStyle=1;align=center;resizeLast=1;" vertex="1" parent="1">
          <mxGeometry x="360" y="80" width="180" height="160" as="geometry" />
        </mxCell>
        <mxCell id="g7x5d8bnA5PVQpnUAOL4-28" value="" style="shape=partialRectangle;collapsible=0;dropTarget=0;pointerEvents=0;fillColor=none;top=0;left=0;bottom=1;right=0;points=[[0,0.5],[1,0.5]];portConstraint=eastwest;" vertex="1" parent="g7x5d8bnA5PVQpnUAOL4-27">
          <mxGeometry y="30" width="180" height="30" as="geometry" />
        </mxCell>
        <mxCell id="g7x5d8bnA5PVQpnUAOL4-29" value="PK" style="shape=partialRectangle;connectable=0;fillColor=none;top=0;left=0;bottom=0;right=0;fontStyle=1;overflow=hidden;" vertex="1" parent="g7x5d8bnA5PVQpnUAOL4-28">
          <mxGeometry width="30" height="30" as="geometry" />
        </mxCell>
        <mxCell id="g7x5d8bnA5PVQpnUAOL4-30" value="course_id int" style="shape=partialRectangle;connectable=0;fillColor=none;top=0;left=0;bottom=0;right=0;align=left;spacingLeft=6;fontStyle=5;overflow=hidden;" vertex="1" parent="g7x5d8bnA5PVQpnUAOL4-28">
          <mxGeometry x="30" width="150" height="30" as="geometry" />
        </mxCell>
        <mxCell id="g7x5d8bnA5PVQpnUAOL4-31" value="" style="shape=partialRectangle;collapsible=0;dropTarget=0;pointerEvents=0;fillColor=none;top=0;left=0;bottom=0;right=0;points=[[0,0.5],[1,0.5]];portConstraint=eastwest;" vertex="1" parent="g7x5d8bnA5PVQpnUAOL4-27">
          <mxGeometry y="60" width="180" height="30" as="geometry" />
        </mxCell>
        <mxCell id="g7x5d8bnA5PVQpnUAOL4-32" value="" style="shape=partialRectangle;connectable=0;fillColor=none;top=0;left=0;bottom=0;right=0;editable=1;overflow=hidden;" vertex="1" parent="g7x5d8bnA5PVQpnUAOL4-31">
          <mxGeometry width="30" height="30" as="geometry" />
        </mxCell>
        <mxCell id="g7x5d8bnA5PVQpnUAOL4-33" value="Name varchar(50)" style="shape=partialRectangle;connectable=0;fillColor=none;top=0;left=0;bottom=0;right=0;align=left;spacingLeft=6;overflow=hidden;fontStyle=1" vertex="1" parent="g7x5d8bnA5PVQpnUAOL4-31">
          <mxGeometry x="30" width="150" height="30" as="geometry" />
        </mxCell>
        <mxCell id="g7x5d8bnA5PVQpnUAOL4-34" value="" style="shape=partialRectangle;collapsible=0;dropTarget=0;pointerEvents=0;fillColor=none;top=0;left=0;bottom=0;right=0;points=[[0,0.5],[1,0.5]];portConstraint=eastwest;" vertex="1" parent="g7x5d8bnA5PVQpnUAOL4-27">
          <mxGeometry y="90" width="180" height="30" as="geometry" />
        </mxCell>
        <mxCell id="g7x5d8bnA5PVQpnUAOL4-35" value="" style="shape=partialRectangle;connectable=0;fillColor=none;top=0;left=0;bottom=0;right=0;editable=1;overflow=hidden;" vertex="1" parent="g7x5d8bnA5PVQpnUAOL4-34">
          <mxGeometry width="30" height="30" as="geometry" />
        </mxCell>
        <mxCell id="g7x5d8bnA5PVQpnUAOL4-36" value="capacity varchar(60)" style="shape=partialRectangle;connectable=0;fillColor=none;top=0;left=0;bottom=0;right=0;align=left;spacingLeft=6;overflow=hidden;fontStyle=1" vertex="1" parent="g7x5d8bnA5PVQpnUAOL4-34">
          <mxGeometry x="30" width="150" height="30" as="geometry" />
        </mxCell>
        <mxCell id="g7x5d8bnA5PVQpnUAOL4-37" value="" style="shape=partialRectangle;collapsible=0;dropTarget=0;pointerEvents=0;fillColor=none;top=0;left=0;bottom=0;right=0;points=[[0,0.5],[1,0.5]];portConstraint=eastwest;" vertex="1" parent="g7x5d8bnA5PVQpnUAOL4-27">
          <mxGeometry y="120" width="180" height="30" as="geometry" />
        </mxCell>
        <mxCell id="g7x5d8bnA5PVQpnUAOL4-38" value="FK" style="shape=partialRectangle;connectable=0;fillColor=none;top=0;left=0;bottom=0;right=0;editable=1;overflow=hidden;fontStyle=1" vertex="1" parent="g7x5d8bnA5PVQpnUAOL4-37">
          <mxGeometry width="30" height="30" as="geometry" />
        </mxCell>
        <mxCell id="g7x5d8bnA5PVQpnUAOL4-39" value="tutor_id" style="shape=partialRectangle;connectable=0;fillColor=none;top=0;left=0;bottom=0;right=0;align=left;spacingLeft=6;overflow=hidden;fontStyle=1" vertex="1" parent="g7x5d8bnA5PVQpnUAOL4-37">
          <mxGeometry x="30" width="150" height="30" as="geometry" />
        </mxCell>
        <mxCell id="g7x5d8bnA5PVQpnUAOL4-40" value="Appointment" style="shape=table;startSize=30;container=1;collapsible=1;childLayout=tableLayout;fixedRows=1;rowLines=0;fontStyle=1;align=center;resizeLast=1;" vertex="1" parent="1">
          <mxGeometry x="360" y="320" width="180" height="190" as="geometry" />
        </mxCell>
        <mxCell id="g7x5d8bnA5PVQpnUAOL4-41" value="" style="shape=partialRectangle;collapsible=0;dropTarget=0;pointerEvents=0;fillColor=none;top=0;left=0;bottom=1;right=0;points=[[0,0.5],[1,0.5]];portConstraint=eastwest;" vertex="1" parent="g7x5d8bnA5PVQpnUAOL4-40">
          <mxGeometry y="30" width="180" height="30" as="geometry" />
        </mxCell>
        <mxCell id="g7x5d8bnA5PVQpnUAOL4-42" value="PK" style="shape=partialRectangle;connectable=0;fillColor=none;top=0;left=0;bottom=0;right=0;fontStyle=1;overflow=hidden;" vertex="1" parent="g7x5d8bnA5PVQpnUAOL4-41">
          <mxGeometry width="30" height="30" as="geometry" />
        </mxCell>
        <mxCell id="g7x5d8bnA5PVQpnUAOL4-43" value="appointment_id" style="shape=partialRectangle;connectable=0;fillColor=none;top=0;left=0;bottom=0;right=0;align=left;spacingLeft=6;fontStyle=5;overflow=hidden;" vertex="1" parent="g7x5d8bnA5PVQpnUAOL4-41">
          <mxGeometry x="30" width="150" height="30" as="geometry" />
        </mxCell>
        <mxCell id="g7x5d8bnA5PVQpnUAOL4-44" value="" style="shape=partialRectangle;collapsible=0;dropTarget=0;pointerEvents=0;fillColor=none;top=0;left=0;bottom=0;right=0;points=[[0,0.5],[1,0.5]];portConstraint=eastwest;" vertex="1" parent="g7x5d8bnA5PVQpnUAOL4-40">
          <mxGeometry y="60" width="180" height="30" as="geometry" />
        </mxCell>
        <mxCell id="g7x5d8bnA5PVQpnUAOL4-45" value="" style="shape=partialRectangle;connectable=0;fillColor=none;top=0;left=0;bottom=0;right=0;editable=1;overflow=hidden;" vertex="1" parent="g7x5d8bnA5PVQpnUAOL4-44">
          <mxGeometry width="30" height="30" as="geometry" />
        </mxCell>
        <mxCell id="g7x5d8bnA5PVQpnUAOL4-46" value="date Date" style="shape=partialRectangle;connectable=0;fillColor=none;top=0;left=0;bottom=0;right=0;align=left;spacingLeft=6;overflow=hidden;fontStyle=1" vertex="1" parent="g7x5d8bnA5PVQpnUAOL4-44">
          <mxGeometry x="30" width="150" height="30" as="geometry" />
        </mxCell>
        <mxCell id="g7x5d8bnA5PVQpnUAOL4-47" value="" style="shape=partialRectangle;collapsible=0;dropTarget=0;pointerEvents=0;fillColor=none;top=0;left=0;bottom=0;right=0;points=[[0,0.5],[1,0.5]];portConstraint=eastwest;" vertex="1" parent="g7x5d8bnA5PVQpnUAOL4-40">
          <mxGeometry y="90" width="180" height="30" as="geometry" />
        </mxCell>
        <mxCell id="g7x5d8bnA5PVQpnUAOL4-48" value="" style="shape=partialRectangle;connectable=0;fillColor=none;top=0;left=0;bottom=0;right=0;editable=1;overflow=hidden;" vertex="1" parent="g7x5d8bnA5PVQpnUAOL4-47">
          <mxGeometry width="30" height="30" as="geometry" />
        </mxCell>
        <mxCell id="g7x5d8bnA5PVQpnUAOL4-49" value="time Time" style="shape=partialRectangle;connectable=0;fillColor=none;top=0;left=0;bottom=0;right=0;align=left;spacingLeft=6;overflow=hidden;fontStyle=1" vertex="1" parent="g7x5d8bnA5PVQpnUAOL4-47">
          <mxGeometry x="30" width="150" height="30" as="geometry" />
        </mxCell>
        <mxCell id="g7x5d8bnA5PVQpnUAOL4-50" value="" style="shape=partialRectangle;collapsible=0;dropTarget=0;pointerEvents=0;fillColor=none;top=0;left=0;bottom=0;right=0;points=[[0,0.5],[1,0.5]];portConstraint=eastwest;" vertex="1" parent="g7x5d8bnA5PVQpnUAOL4-40">
          <mxGeometry y="120" width="180" height="30" as="geometry" />
        </mxCell>
        <mxCell id="g7x5d8bnA5PVQpnUAOL4-51" value="FK" style="shape=partialRectangle;connectable=0;fillColor=none;top=0;left=0;bottom=0;right=0;editable=1;overflow=hidden;fontStyle=1" vertex="1" parent="g7x5d8bnA5PVQpnUAOL4-50">
          <mxGeometry width="30" height="30" as="geometry" />
        </mxCell>
        <mxCell id="g7x5d8bnA5PVQpnUAOL4-52" value="customer_id int" style="shape=partialRectangle;connectable=0;fillColor=none;top=0;left=0;bottom=0;right=0;align=left;spacingLeft=6;overflow=hidden;fontStyle=1" vertex="1" parent="g7x5d8bnA5PVQpnUAOL4-50">
          <mxGeometry x="30" width="150" height="30" as="geometry" />
        </mxCell>
        <mxCell id="g7x5d8bnA5PVQpnUAOL4-109" value="" style="shape=partialRectangle;collapsible=0;dropTarget=0;pointerEvents=0;fillColor=none;top=0;left=0;bottom=0;right=0;points=[[0,0.5],[1,0.5]];portConstraint=eastwest;" vertex="1" parent="g7x5d8bnA5PVQpnUAOL4-40">
          <mxGeometry y="150" width="180" height="30" as="geometry" />
        </mxCell>
        <mxCell id="g7x5d8bnA5PVQpnUAOL4-110" value="FK" style="shape=partialRectangle;connectable=0;fillColor=none;top=0;left=0;bottom=0;right=0;editable=1;overflow=hidden;fontStyle=1" vertex="1" parent="g7x5d8bnA5PVQpnUAOL4-109">
          <mxGeometry width="30" height="30" as="geometry" />
        </mxCell>
        <mxCell id="g7x5d8bnA5PVQpnUAOL4-111" value="tutor_id int" style="shape=partialRectangle;connectable=0;fillColor=none;top=0;left=0;bottom=0;right=0;align=left;spacingLeft=6;overflow=hidden;fontStyle=1" vertex="1" parent="g7x5d8bnA5PVQpnUAOL4-109">
          <mxGeometry x="30" width="150" height="30" as="geometry" />
        </mxCell>
        <mxCell id="g7x5d8bnA5PVQpnUAOL4-53" value="Hours_tutoring" style="shape=table;startSize=30;container=1;collapsible=1;childLayout=tableLayout;fixedRows=1;rowLines=0;fontStyle=1;align=center;resizeLast=1;" vertex="1" parent="1">
          <mxGeometry x="640" y="320" width="180" height="160" as="geometry" />
        </mxCell>
        <mxCell id="g7x5d8bnA5PVQpnUAOL4-54" value="" style="shape=partialRectangle;collapsible=0;dropTarget=0;pointerEvents=0;fillColor=none;top=0;left=0;bottom=1;right=0;points=[[0,0.5],[1,0.5]];portConstraint=eastwest;" vertex="1" parent="g7x5d8bnA5PVQpnUAOL4-53">
          <mxGeometry y="30" width="180" height="30" as="geometry" />
        </mxCell>
        <mxCell id="g7x5d8bnA5PVQpnUAOL4-55" value="PK" style="shape=partialRectangle;connectable=0;fillColor=none;top=0;left=0;bottom=0;right=0;fontStyle=1;overflow=hidden;" vertex="1" parent="g7x5d8bnA5PVQpnUAOL4-54">
          <mxGeometry width="30" height="30" as="geometry" />
        </mxCell>
        <mxCell id="g7x5d8bnA5PVQpnUAOL4-56" value="idnum int" style="shape=partialRectangle;connectable=0;fillColor=none;top=0;left=0;bottom=0;right=0;align=left;spacingLeft=6;fontStyle=5;overflow=hidden;" vertex="1" parent="g7x5d8bnA5PVQpnUAOL4-54">
          <mxGeometry x="30" width="150" height="30" as="geometry" />
        </mxCell>
        <mxCell id="g7x5d8bnA5PVQpnUAOL4-57" value="" style="shape=partialRectangle;collapsible=0;dropTarget=0;pointerEvents=0;fillColor=none;top=0;left=0;bottom=0;right=0;points=[[0,0.5],[1,0.5]];portConstraint=eastwest;" vertex="1" parent="g7x5d8bnA5PVQpnUAOL4-53">
          <mxGeometry y="60" width="180" height="30" as="geometry" />
        </mxCell>
        <mxCell id="g7x5d8bnA5PVQpnUAOL4-58" value="FK" style="shape=partialRectangle;connectable=0;fillColor=none;top=0;left=0;bottom=0;right=0;editable=1;overflow=hidden;fontStyle=1" vertex="1" parent="g7x5d8bnA5PVQpnUAOL4-57">
          <mxGeometry width="30" height="30" as="geometry" />
        </mxCell>
        <mxCell id="g7x5d8bnA5PVQpnUAOL4-59" value="tutor_id int" style="shape=partialRectangle;connectable=0;fillColor=none;top=0;left=0;bottom=0;right=0;align=left;spacingLeft=6;overflow=hidden;fontStyle=1" vertex="1" parent="g7x5d8bnA5PVQpnUAOL4-57">
          <mxGeometry x="30" width="150" height="30" as="geometry" />
        </mxCell>
        <mxCell id="g7x5d8bnA5PVQpnUAOL4-60" value="" style="shape=partialRectangle;collapsible=0;dropTarget=0;pointerEvents=0;fillColor=none;top=0;left=0;bottom=0;right=0;points=[[0,0.5],[1,0.5]];portConstraint=eastwest;" vertex="1" parent="g7x5d8bnA5PVQpnUAOL4-53">
          <mxGeometry y="90" width="180" height="30" as="geometry" />
        </mxCell>
        <mxCell id="g7x5d8bnA5PVQpnUAOL4-61" value="" style="shape=partialRectangle;connectable=0;fillColor=none;top=0;left=0;bottom=0;right=0;editable=1;overflow=hidden;" vertex="1" parent="g7x5d8bnA5PVQpnUAOL4-60">
          <mxGeometry width="30" height="30" as="geometry" />
        </mxCell>
        <mxCell id="g7x5d8bnA5PVQpnUAOL4-62" value="numner_of_hours int" style="shape=partialRectangle;connectable=0;fillColor=none;top=0;left=0;bottom=0;right=0;align=left;spacingLeft=6;overflow=hidden;fontStyle=1" vertex="1" parent="g7x5d8bnA5PVQpnUAOL4-60">
          <mxGeometry x="30" width="150" height="30" as="geometry" />
        </mxCell>
        <mxCell id="g7x5d8bnA5PVQpnUAOL4-118" value="" style="shape=partialRectangle;collapsible=0;dropTarget=0;pointerEvents=0;fillColor=none;top=0;left=0;bottom=0;right=0;points=[[0,0.5],[1,0.5]];portConstraint=eastwest;" vertex="1" parent="g7x5d8bnA5PVQpnUAOL4-53">
          <mxGeometry y="120" width="180" height="30" as="geometry" />
        </mxCell>
        <mxCell id="g7x5d8bnA5PVQpnUAOL4-119" value="" style="shape=partialRectangle;connectable=0;fillColor=none;top=0;left=0;bottom=0;right=0;editable=1;overflow=hidden;" vertex="1" parent="g7x5d8bnA5PVQpnUAOL4-118">
          <mxGeometry width="30" height="30" as="geometry" />
        </mxCell>
        <mxCell id="g7x5d8bnA5PVQpnUAOL4-120" value="date Date" style="shape=partialRectangle;connectable=0;fillColor=none;top=0;left=0;bottom=0;right=0;align=left;spacingLeft=6;overflow=hidden;fontStyle=1" vertex="1" parent="g7x5d8bnA5PVQpnUAOL4-118">
          <mxGeometry x="30" width="150" height="30" as="geometry" />
        </mxCell>
        <mxCell id="g7x5d8bnA5PVQpnUAOL4-82" value="Customers" style="shape=table;startSize=30;container=1;collapsible=1;childLayout=tableLayout;fixedRows=1;rowLines=0;fontStyle=1;align=center;resizeLast=1;" vertex="1" parent="1">
          <mxGeometry x="640" y="80" width="180" height="190" as="geometry" />
        </mxCell>
        <mxCell id="g7x5d8bnA5PVQpnUAOL4-83" value="" style="shape=partialRectangle;collapsible=0;dropTarget=0;pointerEvents=0;fillColor=none;top=0;left=0;bottom=1;right=0;points=[[0,0.5],[1,0.5]];portConstraint=eastwest;" vertex="1" parent="g7x5d8bnA5PVQpnUAOL4-82">
          <mxGeometry y="30" width="180" height="30" as="geometry" />
        </mxCell>
        <mxCell id="g7x5d8bnA5PVQpnUAOL4-84" value="PK" style="shape=partialRectangle;connectable=0;fillColor=none;top=0;left=0;bottom=0;right=0;fontStyle=1;overflow=hidden;" vertex="1" parent="g7x5d8bnA5PVQpnUAOL4-83">
          <mxGeometry width="30" height="30" as="geometry" />
        </mxCell>
        <mxCell id="g7x5d8bnA5PVQpnUAOL4-85" value="customer_id int" style="shape=partialRectangle;connectable=0;fillColor=none;top=0;left=0;bottom=0;right=0;align=left;spacingLeft=6;fontStyle=5;overflow=hidden;" vertex="1" parent="g7x5d8bnA5PVQpnUAOL4-83">
          <mxGeometry x="30" width="150" height="30" as="geometry" />
        </mxCell>
        <mxCell id="g7x5d8bnA5PVQpnUAOL4-86" value="" style="shape=partialRectangle;collapsible=0;dropTarget=0;pointerEvents=0;fillColor=none;top=0;left=0;bottom=0;right=0;points=[[0,0.5],[1,0.5]];portConstraint=eastwest;" vertex="1" parent="g7x5d8bnA5PVQpnUAOL4-82">
          <mxGeometry y="60" width="180" height="30" as="geometry" />
        </mxCell>
        <mxCell id="g7x5d8bnA5PVQpnUAOL4-87" value="" style="shape=partialRectangle;connectable=0;fillColor=none;top=0;left=0;bottom=0;right=0;editable=1;overflow=hidden;" vertex="1" parent="g7x5d8bnA5PVQpnUAOL4-86">
          <mxGeometry width="30" height="30" as="geometry" />
        </mxCell>
        <mxCell id="g7x5d8bnA5PVQpnUAOL4-88" value="firstname varchar(50)" style="shape=partialRectangle;connectable=0;fillColor=none;top=0;left=0;bottom=0;right=0;align=left;spacingLeft=6;overflow=hidden;fontStyle=1" vertex="1" parent="g7x5d8bnA5PVQpnUAOL4-86">
          <mxGeometry x="30" width="150" height="30" as="geometry" />
        </mxCell>
        <mxCell id="g7x5d8bnA5PVQpnUAOL4-89" value="" style="shape=partialRectangle;collapsible=0;dropTarget=0;pointerEvents=0;fillColor=none;top=0;left=0;bottom=0;right=0;points=[[0,0.5],[1,0.5]];portConstraint=eastwest;" vertex="1" parent="g7x5d8bnA5PVQpnUAOL4-82">
          <mxGeometry y="90" width="180" height="30" as="geometry" />
        </mxCell>
        <mxCell id="g7x5d8bnA5PVQpnUAOL4-90" value="" style="shape=partialRectangle;connectable=0;fillColor=none;top=0;left=0;bottom=0;right=0;editable=1;overflow=hidden;" vertex="1" parent="g7x5d8bnA5PVQpnUAOL4-89">
          <mxGeometry width="30" height="30" as="geometry" />
        </mxCell>
        <mxCell id="g7x5d8bnA5PVQpnUAOL4-91" value="lastname varchar(50)" style="shape=partialRectangle;connectable=0;fillColor=none;top=0;left=0;bottom=0;right=0;align=left;spacingLeft=6;overflow=hidden;fontStyle=1" vertex="1" parent="g7x5d8bnA5PVQpnUAOL4-89">
          <mxGeometry x="30" width="150" height="30" as="geometry" />
        </mxCell>
        <mxCell id="g7x5d8bnA5PVQpnUAOL4-92" value="" style="shape=partialRectangle;collapsible=0;dropTarget=0;pointerEvents=0;fillColor=none;top=0;left=0;bottom=0;right=0;points=[[0,0.5],[1,0.5]];portConstraint=eastwest;" vertex="1" parent="g7x5d8bnA5PVQpnUAOL4-82">
          <mxGeometry y="120" width="180" height="30" as="geometry" />
        </mxCell>
        <mxCell id="g7x5d8bnA5PVQpnUAOL4-93" value="" style="shape=partialRectangle;connectable=0;fillColor=none;top=0;left=0;bottom=0;right=0;editable=1;overflow=hidden;" vertex="1" parent="g7x5d8bnA5PVQpnUAOL4-92">
          <mxGeometry width="30" height="30" as="geometry" />
        </mxCell>
        <mxCell id="g7x5d8bnA5PVQpnUAOL4-94" value="gender varchaic(50)" style="shape=partialRectangle;connectable=0;fillColor=none;top=0;left=0;bottom=0;right=0;align=left;spacingLeft=6;overflow=hidden;fontStyle=1" vertex="1" parent="g7x5d8bnA5PVQpnUAOL4-92">
          <mxGeometry x="30" width="150" height="30" as="geometry" />
        </mxCell>
        <mxCell id="g7x5d8bnA5PVQpnUAOL4-95" value="" style="shape=partialRectangle;collapsible=0;dropTarget=0;pointerEvents=0;fillColor=none;top=0;left=0;bottom=0;right=0;points=[[0,0.5],[1,0.5]];portConstraint=eastwest;" vertex="1" parent="g7x5d8bnA5PVQpnUAOL4-82">
          <mxGeometry y="150" width="180" height="30" as="geometry" />
        </mxCell>
        <mxCell id="g7x5d8bnA5PVQpnUAOL4-96" value="" style="shape=partialRectangle;connectable=0;fillColor=none;top=0;left=0;bottom=0;right=0;editable=1;overflow=hidden;" vertex="1" parent="g7x5d8bnA5PVQpnUAOL4-95">
          <mxGeometry width="30" height="30" as="geometry" />
        </mxCell>
        <mxCell id="g7x5d8bnA5PVQpnUAOL4-97" value="phone varchaic(50)" style="shape=partialRectangle;connectable=0;fillColor=none;top=0;left=0;bottom=0;right=0;align=left;spacingLeft=6;overflow=hidden;fontStyle=1" vertex="1" parent="g7x5d8bnA5PVQpnUAOL4-95">
          <mxGeometry x="30" width="150" height="30" as="geometry" />
        </mxCell>
        <mxCell id="g7x5d8bnA5PVQpnUAOL4-105" value="" style="endArrow=none;html=1;rounded=0;exitX=1;exitY=0.5;exitDx=0;exitDy=0;entryX=0;entryY=0.5;entryDx=0;entryDy=0;" edge="1" parent="1" source="g7x5d8bnA5PVQpnUAOL4-2" target="g7x5d8bnA5PVQpnUAOL4-28">
          <mxGeometry relative="1" as="geometry">
            <mxPoint x="340" y="250" as="sourcePoint" />
            <mxPoint x="500" y="250" as="targetPoint" />
          </mxGeometry>
        </mxCell>
        <mxCell id="g7x5d8bnA5PVQpnUAOL4-107" value="" style="endArrow=none;html=1;rounded=0;exitX=1;exitY=0.5;exitDx=0;exitDy=0;entryX=0;entryY=0.5;entryDx=0;entryDy=0;" edge="1" parent="1" source="g7x5d8bnA5PVQpnUAOL4-28" target="g7x5d8bnA5PVQpnUAOL4-83">
          <mxGeometry relative="1" as="geometry">
            <mxPoint x="340" y="250" as="sourcePoint" />
            <mxPoint x="500" y="250" as="targetPoint" />
          </mxGeometry>
        </mxCell>
        <mxCell id="g7x5d8bnA5PVQpnUAOL4-113" value="" style="endArrow=none;html=1;rounded=0;entryX=0;entryY=0.5;entryDx=0;entryDy=0;exitX=0.75;exitY=0;exitDx=0;exitDy=0;edgeStyle=orthogonalEdgeStyle;" edge="1" parent="1" source="g7x5d8bnA5PVQpnUAOL4-40" target="g7x5d8bnA5PVQpnUAOL4-89">
          <mxGeometry relative="1" as="geometry">
            <mxPoint x="470" y="280" as="sourcePoint" />
            <mxPoint x="630" y="280" as="targetPoint" />
            <Array as="points">
              <mxPoint x="495" y="270" />
              <mxPoint x="590" y="270" />
              <mxPoint x="590" y="185" />
            </Array>
          </mxGeometry>
        </mxCell>
        <mxCell id="g7x5d8bnA5PVQpnUAOL4-114" value="" style="endArrow=none;html=1;rounded=0;entryX=0.5;entryY=0;entryDx=0;entryDy=0;" edge="1" parent="1" target="g7x5d8bnA5PVQpnUAOL4-14">
          <mxGeometry relative="1" as="geometry">
            <mxPoint x="160" y="270" as="sourcePoint" />
            <mxPoint x="330" y="290" as="targetPoint" />
          </mxGeometry>
        </mxCell>
        <mxCell id="g7x5d8bnA5PVQpnUAOL4-115" value="" style="endArrow=none;html=1;rounded=0;exitX=1;exitY=0.75;exitDx=0;exitDy=0;entryX=0.5;entryY=1;entryDx=0;entryDy=0;edgeStyle=orthogonalEdgeStyle;" edge="1" parent="1" source="g7x5d8bnA5PVQpnUAOL4-1" target="g7x5d8bnA5PVQpnUAOL4-53">
          <mxGeometry relative="1" as="geometry">
            <mxPoint x="340" y="270" as="sourcePoint" />
            <mxPoint x="500" y="270" as="targetPoint" />
            <Array as="points">
              <mxPoint x="300" y="223" />
              <mxPoint x="300" y="570" />
              <mxPoint x="730" y="570" />
            </Array>
          </mxGeometry>
        </mxCell>
        <mxCell id="g7x5d8bnA5PVQpnUAOL4-117" value="" style="endArrow=none;html=1;rounded=0;exitX=1.011;exitY=0.167;exitDx=0;exitDy=0;exitPerimeter=0;entryX=0.25;entryY=0;entryDx=0;entryDy=0;edgeStyle=orthogonalEdgeStyle;" edge="1" parent="1" source="g7x5d8bnA5PVQpnUAOL4-8" target="g7x5d8bnA5PVQpnUAOL4-40">
          <mxGeometry relative="1" as="geometry">
            <mxPoint x="340" y="300" as="sourcePoint" />
            <mxPoint x="500" y="300" as="targetPoint" />
            <Array as="points">
              <mxPoint x="330" y="175" />
              <mxPoint x="330" y="280" />
              <mxPoint x="405" y="280" />
            </Array>
          </mxGeometry>
        </mxCell>
      </root>
    </mxGraphModel>
  </diagram>
</mxfile>
